HIERARCHY
ROOT Hips
{
  OFFSET 3.13124 94.3669 -3.18751
  CHANNELS  6 Xposition Yposition Zposition Zrotation Xrotation Yrotation
  JOINT LeftUpLeg
  {
    OFFSET 8.64259 1.95398 -2.38835
    CHANNELS 3 Zrotation Xrotation Yrotation
    JOINT LeftLeg
    {
      OFFSET 43.7702 0 0
      CHANNELS 3 Zrotation Xrotation Yrotation
      JOINT LeftFoot
      {
        OFFSET 40.6238 0 0
        CHANNELS 3 Zrotation Xrotation Yrotation
        JOINT LeftToeBase
        {
          OFFSET 12.7242 0 0
          CHANNELS 3 Zrotation Xrotation Yrotation
          End Site
          {
            OFFSET 0 0 0
          }
        }
      }
    }
  }
  JOINT RightUpLeg
  {
    OFFSET -8.2249 1.95398 -2.59336
    CHANNELS 3 Zrotation Xrotation Yrotation
    JOINT RightLeg
    {
      OFFSET 43.5653 0 0
      CHANNELS 3 Zrotation Xrotation Yrotation
      JOINT RightFoot
      {
        OFFSET 40.6238 0 0
        CHANNELS 3 Zrotation Xrotation Yrotation
        JOINT RightToeBase
        {
          OFFSET 12.7242 0 0
          CHANNELS 3 Zrotation Xrotation Yrotation
          End Site
          {
            OFFSET 0 0 0
          }
        }
      }
    }
  }
  JOINT Spine
  {
    OFFSET 0.165834 0.87714 6.61349
    CHANNELS 3 Zrotation Xrotation Yrotation
    JOINT Spine1
    {
      OFFSET 7.38962 1.71661e-005 0
      CHANNELS 3 Zrotation Xrotation Yrotation
      JOINT Spine2
      {
        OFFSET 11.9445 1.14441e-005 0
        CHANNELS 3 Zrotation Xrotation Yrotation
        JOINT Spine3
        {
          OFFSET 14.7254 4.19617e-005 0
          CHANNELS 3 Zrotation Xrotation Yrotation
          JOINT Spine4
          {
            OFFSET 10.9679 0 0
            CHANNELS 3 Zrotation Xrotation Yrotation
            JOINT RightShoulder
            {
              OFFSET 2.46616 -1.6653 3.69651
              CHANNELS 3 Zrotation Xrotation Yrotation
              JOINT RightArm
              {
                OFFSET 13.0012 0 0
                CHANNELS 3 Zrotation Xrotation Yrotation
                JOINT RightForeArm
                {
                  OFFSET 28.7848 1.52588e-005 0
                  CHANNELS 3 Zrotation Xrotation Yrotation
                  JOINT RightHand
                  {
                    OFFSET 26.5688 1.52588e-005 0
                    CHANNELS 3 Zrotation Xrotation Yrotation
                    End Site
                    {
                      OFFSET 0 0 0
                    }
                  }
                }
              }
            }
            JOINT LeftShoulder
            {
              OFFSET 2.38034 -1.29275 -3.75231
              CHANNELS 3 Zrotation Xrotation Yrotation
              JOINT LeftArm
              {
                OFFSET 16.3182 6.10352e-005 0
                CHANNELS 3 Zrotation Xrotation Yrotation
                JOINT LeftForeArm
                {
                  OFFSET 27.0901 0 0
                  CHANNELS 3 Zrotation Xrotation Yrotation
                  JOINT LeftHand
                  {
                    OFFSET 24.5451 1.52588e-005 0
                    CHANNELS 3 Zrotation Xrotation Yrotation
                    End Site
                    {
                      OFFSET 0 0 0
                    }
                  }
                }
              }
            }
            JOINT Neck
            {
              OFFSET 5.0226 -0.0266342 0
              CHANNELS 3 Zrotation Xrotation Yrotation
              JOINT Head
              {
                OFFSET 6.69363 2.86102e-005 0
                CHANNELS 3 Zrotation Xrotation Yrotation
                End Site
                {
                  OFFSET 0 0 0
                }
              }
            }
          }
        }
      }
    }
  }
}
MOTION
Frames:	14
Frame Time:	0.0333333
1.7031 97.7511 -26.8332 92.8315 -89.9911 92.8831 -171.614 2.81905 93.1428 -8.60129 8.31882 0.807813 63.2034 1.66327 0.868357 28.7808 5.76549e-006 8.90265e-006 179.411 1.81065 89.0837 -7.42217 -0.456032 -0.0308229 62.6471 -1.24019 -0.626603 28.7808 1.3803e-005 3.16228e-005 0.00274299 6.3406 -90.0524 14.1927 -0.00300972 -0.000832935 2.52178 -0.00304193 -0.000705462 -20.0134 -0.00262296 -0.00169834 -0.000728669 -0.0026211 -0.00170091 100.855 -18.7775 -85.4033 -3.66267 41.6899 -14.1954 -1.08935 0.373068 -2.70631 -5.37983 -0.32001 -0.0162411 -78.992 -21.6629 94.3073 13.8398 -40.4419 -6.8893 -0.329358 40.6825 -0.00131525 0.38072 -0.0319481 -1.90732 1.76036 0.00331173 0.01021 -7.42217 0.00222502 -0.00399072 
1.73065 97.7712 -26.811 90.0911 -89.8751 90.182 -171.622 2.72684 93.159 -8.38863 8.36871 0.807635 63.0914 1.69501 0.888853 28.7808 5.76549e-006 8.90265e-006 179.407 0.857827 89.1416 -5.49216 -0.26973 -0.0193916 61.7471 -1.19545 -0.585954 28.7808 1.3803e-005 3.16228e-005 -0.0161953 6.34638 -90.0988 14.1812 -0.0511488 -0.0141281 2.51028 -0.0517071 -0.0118635 -20.0249 -0.0445413 -0.0288382 -0.0122395 -0.0445294 -0.0288376 100.871 -18.7662 -85.3591 -3.5521 41.6857 -14.413 -1.08845 0.373068 -2.70596 -5.37983 -0.32001 -0.0162411 -79.0283 -21.7899 94.2355 13.7593 -40.4428 -7.04328 -0.330816 40.5494 -0.00131263 1.2242 -0.0553351 -3.25746 1.86393 0.0560303 0.168797 -7.59182 0.0375184 -0.0632211 
1.74091 97.7697 -26.7964 89.8413 -89.8096 89.9426 -171.616 2.72478 93.163 -8.38435 8.42101 0.805327 63.1215 1.69944 0.892323 28.7808 5.76549e-006 8.90265e-006 179.423 0.889781 89.1661 -5.5895 -0.0776605 -0.00878478 61.7831 -1.30616 -0.652033 28.7808 1.3803e-005 3.16228e-005 -0.0359819 6.3513 -90.1131 14.1715 -0.0955983 -0.0261424 2.50054 -0.0966576 -0.0219256 -20.0346 -0.0833185 -0.0536626 -0.0219926 -0.0833264 -0.053672 100.872 -18.7598 -85.3595 -3.46895 41.6807 -14.6011 -1.076 0.373081 -2.66365 -5.37983 -0.32001 -0.0162411 -79.0812 -22.0141 94.1281 13.933 -40.5798 -7.111 -0.141937 41.4263 -0.0013302 1.29887 -0.0856714 -4.2202 1.92778 0.103913 0.253892 -7.60681 0.0681276 -0.0603572 
1.75228 97.7711 -26.772 115.199 -89.8693 115.298 -171.612 2.68066 93.1644 -8.4735 8.39903 0.829883 63.1791 1.62799 0.849954 28.7808 5.76549e-006 8.90265e-006 179.422 0.757631 89.1553 -5.46517 -0.207245 -0.0156469 61.8069 -1.38063 -0.697796 28.7808 1.3803e-005 3.16228e-005 -0.0367517 6.36082 -90.0998 14.1524 -0.0961108 -0.0337736 2.48148 -0.0974959 -0.0295184 -20.0537 -0.081525 -0.0610967 -0.0410582 -0.0815139 -0.0610935 100.882 -18.8295 -85.3294 -3.44864 41.7044 -14.6714 -1.08797 0.373078 -2.67245 -5.37983 -0.32001 -0.0162411 -79.0968 -21.9903 94.0931 13.8021 -40.505 -7.31186 -0.344476 41.5213 -0.00133215 1.34228 -0.0322523 -2.57375 1.98192 0.109126 0.315839 -7.6519 0.0683576 -0.163312 
1.76349 97.7505 -26.7637 -34.5342 -89.9727 -34.4309 -171.629 2.69831 93.1513 -8.39559 8.21977 0.79439 63.2064 1.70694 0.897413 28.7808 5.76549e-006 8.90265e-006 179.424 0.818814 89.1665 -5.39281 -0.234317 -0.0169523 61.788 -1.39897 -0.709453 28.7808 1.3803e-005 3.16228e-005 -0.0306589 6.35747 -90.1085 14.1588 -0.0860912 -0.038253 2.48783 -0.0876943 -0.0344286 -20.0473 -0.0706243 -0.0624894 -0.0346905 -0.070618 -0.0624825 100.868 -18.8388 -85.3646 -3.44521 41.6967 -14.6107 -1.09996 0.373073 -2.68883 -5.37983 -0.32001 -0.0162411 -79.0914 -21.9439 94.1025 13.6968 -40.5815 -7.46754 -0.210576 41.4216 -0.00133011 1.01657 -0.0505889 -3.01788 2.06624 0.12552 0.37495 -7.72877 0.0784019 -0.225965 
1.77945 97.7641 -26.7517 -95.5498 -89.7868 -95.4496 -171.647 2.63862 93.1397 -8.44722 8.05745 0.810499 63.2026 1.7005 0.892263 28.7808 5.76549e-006 8.90265e-006 179.417 0.779509 89.1471 -5.37947 -0.413157 -0.0269495 61.7641 -1.35709 -0.68414 28.7808 1.3803e-005 3.16228e-005 -0.0207016 6.36028 -90.0981 14.1435 -0.0648359 -0.0425509 2.47252 -0.0666383 -0.0396511 -20.0626 -0.0490429 -0.0642245 -0.0499819 -0.0490461 -0.0642159 100.859 -18.8951 -85.3822 -3.48756 41.6798 -14.5901 -1.0684 0.373082 -2.66106 -5.37983 -0.32001 -0.0162411 -78.9941 -22.0957 94.3284 13.7033 -40.7051 -7.87513 -0.201237 41.253 -0.00132667 1.26894 -0.0579123 -3.34443 2.10616 0.14974 0.376952 -7.71235 0.099921 -0.203514 
1.79274 97.7685 -26.7456 -87.2231 -89.5912 -87.1288 -171.678 2.69231 93.1095 -8.54715 7.9045 0.83843 63.194 1.71089 0.895656 28.7808 5.76549e-006 8.90265e-006 179.422 0.767203 89.1329 -5.2324 -0.548669 -0.0341171 61.7045 -1.32688 -0.667297 28.7808 1.3803e-005 3.16228e-005 -0.0125557 6.36541 -90.0778 14.1427 -0.0469753 -0.0532335 2.47171 -0.0492667 -0.0511252 -20.0634 -0.028803 -0.066534 -0.0507951 -0.0287974 -0.0665237 100.829 -18.8224 -85.4597 -3.46961 41.6548 -14.4983 -1.0599 0.373086 -2.64856 -5.37983 -0.32001 -0.0162411 -79.0359 -22.0062 94.2331 13.7615 -40.7018 -7.66919 -0.166895 41.4479 -0.00133065 1.19182 -0.0559134 -3.25729 2.14262 0.191249 0.447904 -7.67399 0.130775 -0.230865 
1.81623 97.7624 -26.7432 -85.0968 -89.3861 -84.9742 -171.705 2.6231 93.1099 -8.40349 7.58674 0.810776 63.23 1.71288 0.899762 28.7808 5.76549e-006 8.90265e-006 179.412 0.849365 89.1422 -5.28059 -0.80544 -0.048616 61.6936 -1.40324 -0.711498 28.7808 1.3803e-005 3.16228e-005 -0.00137994 6.3697 -90.0968 14.1345 -0.0280736 -0.0571504 2.46356 -0.0305628 -0.0558697 -20.0716 -0.00959728 -0.0686251 -0.0589438 -0.00959795 -0.0686141 100.817 -18.8069 -85.4882 -3.42252 41.6583 -14.5077 -1.09181 0.373085 -2.65213 -5.37983 -0.32001 -0.0162411 -79.0196 -21.9527 94.268 13.7845 -40.6893 -7.55512 -0.193021 41.4446 -0.00133058 1.77874 -0.0620555 -3.62774 2.30564 0.240326 0.485936 -7.7805 0.173358 -0.260654 
1.82999 97.7691 -26.7426 -84.0615 -89.2307 -83.9492 -171.738 2.64646 93.0809 -8.44846 7.45462 0.834855 63.2069 1.67308 0.875375 28.7808 5.76549e-006 8.90265e-006 179.404 0.868523 89.1186 -5.22508 -0.939642 -0.0559687 61.6516 -1.37346 -0.693854 28.7808 1.3803e-005 3.16228e-005 0.004016 6.37343 -90.0865 14.1272 -0.0161171 -0.0606739 2.45628 -0.0187661 -0.0598707 -20.0789 0.00286113 -0.0697053 -0.0662104 0.00285598 -0.0696952 100.797 -18.76 -85.5448 -3.4155 41.6678 -14.4516 -1.10992 0.373082 -2.66131 -5.37983 -0.32001 -0.0162411 -79.001 -21.9916 94.3089 13.8838 -40.6756 -7.44077 -0.244186 41.3071 -0.00132777 2.12042 -0.0687266 -3.81247 2.45777 0.279671 0.555637 -7.88184 0.201645 -0.289054 
1.85133 97.7513 -26.7444 -81.3045 -89.0815 -81.1289 -171.754 2.52384 93.1195 -8.1305 7.28953 0.830153 63.2885 1.7037 0.900175 28.7808 5.76549e-006 8.90265e-006 179.404 1.01889 89.1696 -5.36733 -1.06016 -0.0631264 61.6715 -1.33797 -0.670807 28.7808 1.3803e-005 3.16228e-005 0.0163216 6.37891 -90.1367 14.1223 -0.000277059 -0.0679129 2.45138 -0.00318745 -0.0660806 -20.0838 0.0196102 -0.0689819 -0.0711252 0.0196124 -0.068975 100.799 -18.7037 -85.544 -3.41775 41.6309 -14.4146 -1.07401 0.373084 -2.65478 -5.37983 -0.32001 -0.0162411 -78.9845 -21.9951 94.3473 13.9065 -40.6672 -7.34388 -0.240768 39.5412 -0.00129336 0.921062 -0.071908 -3.71667 2.66545 0.32248 0.64964 -8.00853 0.23239 -0.38594 
1.87207 97.7677 -26.7377 -83.0022 -88.9764 -82.8403 -171.777 2.51642 93.0898 -8.17179 7.02228 0.799708 63.2211 1.62793 0.853997 28.7808 5.76549e-006 8.90265e-006 179.395 0.999496 89.1402 -5.32951 -1.15021 -0.06807 61.6049 -1.31261 -0.655357 28.7808 1.3803e-005 3.16228e-005 0.0231135 6.38369 -90.1243 14.1064 0.0143047 -0.0733424 2.43541 0.0110651 -0.0738745 -20.0997 0.035693 -0.06562 -0.087077 0.0356957 -0.0656196 100.799 -18.5431 -85.5555 -3.3211 41.6303 -14.3993 -1.10891 0.373089 -2.63631 -5.37983 -0.32001 -0.0162411 -78.9767 -22.08 94.368 13.9576 -40.635 -7.28565 -0.140336 41.5931 -0.00133363 1.72012 -0.0948648 -4.49611 2.69573 0.333424 0.75842 -7.92417 0.226112 -0.409699 
1.89439 97.7562 -26.7385 -80.8079 -88.8232 -80.6437 -171.841 2.50142 93.0406 -8.09288 6.92393 0.881574 63.2477 1.68394 0.887341 28.7808 5.76549e-006 8.90265e-006 179.387 1.02873 89.1302 -5.23045 -1.29378 -0.0757453 61.6079 -1.33782 -0.671526 28.7808 1.3803e-005 3.16228e-005 0.0363763 6.38189 -90.1216 14.1101 0.0418662 -0.0714935 2.43913 0.0386797 -0.0723576 -20.096 0.0614148 -0.055605 -0.0833692 0.0614068 -0.0556191 100.772 -18.5566 -85.6184 -3.41067 41.6733 -14.2881 -1.14409 0.373077 -2.67689 -5.37983 -0.32001 -0.0162411 -78.9659 -22.0062 94.393 13.8663 -40.5463 -7.22121 -0.283599 39.5485 -0.00129349 1.53557 -0.10558 -4.81062 2.75993 0.332756 0.66376 -7.94367 0.231987 -0.285749 
1.92292 97.7821 -26.7292 -81.112 -88.7335 -80.9613 -171.9 2.48002 92.9849 -8.06848 6.66717 0.895732 63.1371 1.63234 0.855657 28.7808 5.76549e-006 8.90265e-006 179.37 1.09763 89.0984 -5.32618 -1.39069 -0.0815044 61.5372 -1.37575 -0.691903 28.7808 1.3803e-005 3.16228e-005 0.0430499 6.38518 -90.118 14.1035 0.0560688 -0.0702671 2.43253 0.0529158 -0.0674095 -20.1026 0.0745961 -0.0501656 -0.089972 0.0745877 -0.0501755 100.76 -18.4871 -85.6548 -3.39011 41.6953 -14.2816 -1.16714 0.373076 -2.68003 -5.37983 -0.32001 -0.0162411 -78.9564 -21.998 94.4119 13.8207 -40.5113 -7.16198 -0.222649 41.6448 -0.0013347 2.33075 -0.10314 -4.6838 2.87572 0.354836 0.690386 -8.05299 0.251842 -0.330566 
1.95062 97.7564 -26.7364 -74.9194 -88.5928 -74.8191 -171.992 2.65416 92.8705 -8.12013 6.41349 0.916358 63.1608 1.64667 0.862386 28.7808 5.76549e-006 8.90265e-006 179.349 1.12264 89.033 -4.99321 -1.4734 -0.0848435 61.5318 -1.30295 -0.65299 28.7808 1.3803e-005 3.16228e-005 0.0547506 6.36491 -90.0833 14.144 0.0869468 -0.0602986 2.47307 0.0842086 -0.0642303 -20.0621 0.101049 -0.0313866 -0.0494536 0.101047 -0.0313873 100.811 -18.4288 -85.5393 -3.29634 41.6391 -14.3937 -1.12709 0.373078 -2.67412 -5.37983 -0.32001 -0.0162411 -78.9766 -21.8793 94.3528 13.7387 -40.4323 -7.07563 -0.0378106 46.6806 -0.00145379 3.85334 -0.0780617 -4.14244 2.95627 0.345143 0.602877 -8.1889 0.257789 -0.299299 
